<svg xmlns="http://www.w3.org/2000/svg"  viewBox="0 0 64 64" width="96px" height="96px"><linearGradient id="7j7Foei~0KOlRLiLnX5sIa" x1="32" x2="32" y1="2.002" y2="62" gradientUnits="userSpaceOnUse" spreadMethod="reflect"><stop offset="0" stop-color="#1a6dff"/><stop offset="1" stop-color="#c822ff"/></linearGradient><path fill="url(#7j7Foei~0KOlRLiLnX5sIa)" d="M61.91,31.59C61.75,31.23,61.4,31,61,31H49V17.5c0-0.28-0.12-0.55-0.33-0.74l-16-14.5 c-0.29-0.27-0.71-0.33-1.08-0.17C31.23,2.25,31,2.6,31,3v12H17.5c-0.28,0-0.55,0.12-0.74,0.33l-14.5,16 c-0.27,0.29-0.33,0.71-0.17,1.08C2.25,32.77,2.6,33,3,33h12v13.5c0,0.28,0.12,0.55,0.33,0.74l16,14.5C31.52,61.91,31.76,62,32,62 c0.14,0,0.28-0.03,0.41-0.09C32.77,61.75,33,61.4,33,61V49h13.5c0.28,0,0.55-0.12,0.74-0.33l14.5-16 C62.01,32.38,62.07,31.96,61.91,31.59z M33,5.26l13.35,12.1L34.74,28.98C33.66,27.85,33,26.34,33,24.67V5.26z M47,19.54V31h-7.54 c-1.13,0-2.2-0.29-3.12-0.79L47,19.54z M31,17v7.54c0,1.13-0.29,2.2-0.79,3.12L19.54,17H31z M5.26,31l12.1-13.35l11.62,11.61 C27.85,30.34,26.34,31,24.67,31H5.26z M17,33h7.54c1.13,0,2.2,0.29,3.12,0.79L17,44.46V33z M31,58.74l-13.35-12.1l11.61-11.62 c1.08,1.13,1.74,2.64,1.74,4.31V58.74z M32.01,35.43c-0.78-1.45-1.98-2.64-3.44-3.42c1.45-0.78,2.64-1.98,3.42-3.44 c0.78,1.45,1.98,2.64,3.44,3.42C33.98,32.77,32.79,33.97,32.01,35.43z M33,47v-7.54c0-1.13,0.29-2.2,0.79-3.12L44.46,47H33z M46.64,46.35L35.02,34.74c1.13-1.08,2.64-1.74,4.31-1.74h19.41L46.64,46.35z"/><linearGradient id="7j7Foei~0KOlRLiLnX5sIb" x1="38.73" x2="38.73" y1="36.34" y2="47" gradientUnits="userSpaceOnUse" spreadMethod="reflect"><stop offset="0" stop-color="#6dc7ff"/><stop offset="1" stop-color="#e6abff"/></linearGradient><path fill="url(#7j7Foei~0KOlRLiLnX5sIb)" d="M44.46,47H33v-7.54c0-1.13,0.29-2.2,0.79-3.12L44.46,47z"/><linearGradient id="7j7Foei~0KOlRLiLnX5sIc" x1="41.67" x2="41.67" y1="19.54" y2="31" gradientUnits="userSpaceOnUse" spreadMethod="reflect"><stop offset="0" stop-color="#6dc7ff"/><stop offset="1" stop-color="#e6abff"/></linearGradient><path fill="url(#7j7Foei~0KOlRLiLnX5sIc)" d="M47,19.54V31h-7.54c-1.13,0-2.2-0.29-3.12-0.79L47,19.54z"/><linearGradient id="7j7Foei~0KOlRLiLnX5sId" x1="22.33" x2="22.33" y1="33" y2="44.46" gradientUnits="userSpaceOnUse" spreadMethod="reflect"><stop offset="0" stop-color="#6dc7ff"/><stop offset="1" stop-color="#e6abff"/></linearGradient><path fill="url(#7j7Foei~0KOlRLiLnX5sId)" d="M27.66,33.79L17,44.46V33h7.54C25.67,33,26.74,33.29,27.66,33.79z"/><linearGradient id="7j7Foei~0KOlRLiLnX5sIe" x1="25.27" x2="25.27" y1="17" y2="27.66" gradientUnits="userSpaceOnUse" spreadMethod="reflect"><stop offset="0" stop-color="#6dc7ff"/><stop offset="1" stop-color="#e6abff"/></linearGradient><path fill="url(#7j7Foei~0KOlRLiLnX5sIe)" d="M31,17v7.54c0,1.13-0.29,2.2-0.79,3.12L19.54,17H31z"/></svg>