<svg xmlns="http://www.w3.org/2000/svg" viewBox="0 0 400 300" width="406" height="306" class="illustration styles_illustrationTablet__1DWOa"><g id="_281_sad_face_flatline" data-name="#281_sad_face_flatline"><path d="M262.23,213.22H262a4,4,0,0,1-3.78-4.2l5.61-105.15a4,4,0,0,1,8,.43l-5.61,105.14A4,4,0,0,1,262.23,213.22Z" fill="#231f20"></path><path d="M129.83,174.86a15.65,15.65,0,0,1-5.77-1c-7.3-2.86-9.67-7.59-10.37-11-2.56-12.56,12.62-27.88,14.36-29.58a4,4,0,1,1,5.6,5.71c-5.37,5.28-13.41,16-12.12,22.28.17.82.68,3.32,5.45,5.19,8.61,3.38,26.08-10.39,35.07-19.86a4,4,0,0,1,5.8,5.5C165.41,154.59,145.7,174.86,129.83,174.86Z" fill="#231f20"></path><path d="M149,89.46s-9-4.29-11.31,3.27-2.76,30.11-4.88,32.7a71.2,71.2,0,0,1-7.24,6.81l9.7,19.27,21.52-9.68S149.29,99.87,149,89.46Z" fill="#fff"></path><path d="M135.22,152a.54.54,0,0,1-.47-.29l-9.69-19.26a.51.51,0,0,1,.13-.63,72.49,72.49,0,0,0,7.17-6.75c1-1.22,1.68-8.24,2.33-15s1.33-13.81,2.46-17.49a6.44,6.44,0,0,1,3.52-4.27c3.65-1.6,8.31.59,8.51.69a.51.51,0,0,1,.29.44c.33,10.26,7.71,51.88,7.78,52.29a.52.52,0,0,1-.3.57L135.43,152A.54.54,0,0,1,135.22,152Zm-9.06-19.65,9.29,18.46,20.71-9.32c-.75-4.26-7.26-41.44-7.71-51.72-1-.42-4.63-1.75-7.37-.54a5.43,5.43,0,0,0-2.94,3.62c-1.1,3.58-1.77,10.55-2.42,17.29-.84,8.78-1.44,14.22-2.56,15.59A66.26,66.26,0,0,1,126.16,132.38Z" fill="#231f20"></path><path d="M198,235.29a4,4,0,0,1-4-3.39l-12.59-82.31a4,4,0,1,1,7.91-1.21L202,230.69a4,4,0,0,1-3.35,4.56A4.17,4.17,0,0,1,198,235.29Z" fill="#231f20"></path><path d="M221.78,235.29l-.46,0a4,4,0,0,1-3.52-4.43c2.93-25.39,7.44-66.88,7.28-71.87a4,4,0,0,1,7.19-3.17c1.16,1.67,1.51,2.17-2.52,39.89-1.91,17.92-4,35.89-4,36.07A4,4,0,0,1,221.78,235.29Zm3.93-74.92h0Zm0,0Zm0,0Z" fill="#231f20"></path><ellipse cx="208.24" cy="254.75" rx="64.03" ry="7.61" fill="#e6e7e8"></ellipse><circle cx="206.59" cy="116.29" r="65.45" fill="#68e1fd"></circle><path d="M206.66,50.82a65.54,65.54,0,1,1-12.8,1.27,65.47,65.47,0,0,1,12.8-1.27m0-1h0a66.5,66.5,0,0,0-.14,133,66.5,66.5,0,0,0,.14-133Z" fill="#231f20"></path><ellipse cx="182.21" cy="104.07" rx="5.2" ry="12.34" transform="matrix(0.98, -0.19, 0.19, 0.98, -16.77, 37.44)" fill="#231f20"></ellipse><ellipse cx="224.47" cy="95.69" rx="5.2" ry="12.34" transform="matrix(0.98, -0.19, 0.19, 0.98, -14.33, 45.5)" fill="#231f20"></ellipse><path d="M178.87,165.42a1.5,1.5,0,0,1-1.47-1.21c-1.53-7.71,1-15.7,7-22.52S199.1,130.22,209,128.27c20.53-4.08,39.77,5.42,42.9,21.17a1.5,1.5,0,0,1-3,.58c-2.8-14.12-20.46-22.56-39.37-18.81-9.23,1.83-17.36,6.26-22.88,12.47s-7.67,13.18-6.33,19.95a1.5,1.5,0,0,1-1.18,1.76Z" fill="#231f20"></path><rect x="113.35" y="138.53" width="29.77" height="8.51" rx="3.71" transform="translate(199.32 -35.48) rotate(63.67)" fill="#fff"></rect><path d="M132.71,157.27a4.24,4.24,0,0,1-3.8-2.36h0l-9.91-20a4.23,4.23,0,0,1,1.91-5.67l1-.48a4.19,4.19,0,0,1,3.22-.22,4.24,4.24,0,0,1,2.44,2.13l9.91,20a4.23,4.23,0,0,1-1.91,5.67l-1,.48A4.31,4.31,0,0,1,132.71,157.27Zm-2.87-2.81a3.2,3.2,0,0,0,4.28,1.44l1-.48a3.2,3.2,0,0,0,1.45-4.28l-9.91-20a3.23,3.23,0,0,0-1.85-1.61,3.19,3.19,0,0,0-2.44.17l-1,.48a3.18,3.18,0,0,0-1.44,4.28Z" fill="#231f20"></path><ellipse cx="162.39" cy="121.78" rx="7.96" ry="5.06" transform="translate(-20.59 33.92) rotate(-11.22)" fill="#fff"></ellipse><ellipse cx="251.54" cy="104.49" rx="7.96" ry="5.06" transform="translate(-15.52 50.94) rotate(-11.22)" fill="#fff"></ellipse><path d="M169.31,99.41s13.66-6,15.37-15.14" fill="#68e1fd"></path><path d="M169.31,100.91A1.5,1.5,0,0,1,168.7,98c.13-.06,13-5.83,14.5-14.05a1.5,1.5,0,1,1,3,.56c-1.83,9.76-15.65,16-16.24,16.23A1.41,1.41,0,0,1,169.31,100.91Z" fill="#231f20"></path><path d="M233.93,87s-14.94-.36-20-8.13" fill="#68e1fd"></path><path d="M233.93,88.49h0c-.64,0-15.78-.48-21.2-8.81A1.5,1.5,0,1,1,215.2,78c4.56,7,18.62,7.44,18.77,7.45a1.5,1.5,0,0,1,0,3Z" fill="#231f20"></path><path d="M136.14,127.58s-.36-17.23,3.65-23.51,12.73-8.61,10.85-1.85-7,14.85-7,14.85,3.77,14.45-.92,23.08" fill="#fff"></path><path d="M142.71,140.67a.54.54,0,0,1-.25-.06.52.52,0,0,1-.21-.7c4.54-8.35.92-22.57.88-22.71a.53.53,0,0,1,.06-.41c.06-.08,5.12-8.11,6.95-14.71.34-1.2.49-2.74-.65-3.25-2-.89-6.68,1.48-9.26,5.52-3.88,6.07-3.58,23.05-3.58,23.22a.51.51,0,0,1-.5.52h0a.52.52,0,0,1-.52-.5c0-.71-.31-17.46,3.74-23.79,2.71-4.25,7.84-7.12,10.55-5.91.82.36,2.07,1.43,1.23,4.46-1.74,6.27-6.16,13.52-7,14.8.48,1.92,3.46,15-1,23.25A.51.51,0,0,1,142.71,140.67Z" fill="#231f20"></path><path d="M272.27,192.44s-2.73,15.39-3,20.18-7.4,23.49-16.62,24.62,4.63-9.23,4.42-16-5.45-.78-7.42,6.25-5.72-.33-4-6.81,2.63-6.57,3.19-11.92-.37-22.52-.37-22.52Z" fill="#fff"></path><path d="M251.43,237.83c-1.18,0-1.91-.28-2.26-.86-.78-1.32.73-3.44,2.82-6.39s4.64-6.54,4.56-9.31c-.06-1.75-.46-2.42-.82-2.46-1.2-.14-4.13,3.58-5.6,8.83-.85,3-2,3.41-2.84,3.19-2-.53-3.39-5.61-2.18-10.27.69-2.63,1.26-4.24,1.72-5.53a22.53,22.53,0,0,0,1.46-6.31c.55-5.25-.37-22.27-.38-22.45a.49.49,0,0,1,.19-.42.51.51,0,0,1,.46-.1l23.84,6.19a.52.52,0,0,1,.38.59c0,.15-2.73,15.42-3,20.12s-7.45,23.92-17.07,25.1A10.19,10.19,0,0,1,251.43,237.83Zm4.24-20.05h.18c1.08.13,1.66,1.29,1.73,3.45.09,3.11-2.48,6.74-4.75,9.94-1.51,2.12-3.21,4.52-2.77,5.26.1.16.54.52,2.52.28,8.93-1.09,15.91-19.81,16.17-24.13s2.46-17.11,2.93-19.77l-22.7-5.9c.17,3.33.84,17.13.34,21.91a23.9,23.9,0,0,1-1.52,6.55c-.45,1.27-1,2.85-1.69,5.44-1.13,4.33.28,8.7,1.45,9,.38.1,1-.49,1.58-2.47C250.44,222.74,253.39,217.78,255.67,217.78Z" fill="#231f20"></path><rect x="244.8" y="184.88" width="34.67" height="8.51" rx="3.99" transform="translate(465.7 440.23) rotate(-164.84)" fill="#fff"></rect><path d="M275,197.39a4.72,4.72,0,0,1-1.18-.16l-25.78-7a4.51,4.51,0,0,1-3.17-5.53l.14-.51A4.51,4.51,0,0,1,250.5,181h0l25.77,7a4.5,4.5,0,0,1,3.17,5.52l-.14.52a4.52,4.52,0,0,1-4.34,3.33Zm-25.64-15.48a3.48,3.48,0,0,0-3.35,2.57l-.14.51a3.47,3.47,0,0,0,2.44,4.26l25.77,7a3.47,3.47,0,0,0,4.26-2.44l.14-.52A3.47,3.47,0,0,0,276,189l-25.77-7A3.61,3.61,0,0,0,249.32,181.91Z" fill="#231f20"></path><path d="M208.24,218.21s-28.22-5.51-28.45-2.76.92,25.27.92,25.27-27,14.51-22.84,16.35,50.37-6.7,50.37-6.7Z" fill="#fff"></path><path d="M160.21,257.83a7.38,7.38,0,0,1-2.55-.29,1.13,1.13,0,0,1-.74-1c0-.64-.08-2.31,11.84-9.57,5.05-3.07,10.17-5.87,11.42-6.55-.15-2.88-1.12-22.4-.9-25a1,1,0,0,1,.4-.7c2.61-2,24.34,2.15,28.66,3a.51.51,0,0,1,.42.51v32.16a.52.52,0,0,1-.42.51C204.1,251.66,170.37,257.83,160.21,257.83Zm22.42-42.66c-1.3,0-2.12.12-2.34.38-.21,2.64.93,24.92.94,25.15a.54.54,0,0,1-.27.48c-11.36,6.11-23.07,13.51-23,15.32,0,0,0,.06.12.1,3.24,1.44,36.52-4.25,49.65-6.66v-31.3C197.75,216.7,187.23,215.17,182.63,215.17Z" fill="#231f20"></path><path d="M211.34,218.21s28.22-5.51,28.45-2.76-.92,25.27-.92,25.27,27,14.51,22.84,16.35-50.37-6.7-50.37-6.7Z" fill="#fff"></path><path d="M259.37,257.83c-10.15,0-43.89-6.17-48.13-6.95a.52.52,0,0,1-.42-.51V218.21a.52.52,0,0,1,.42-.51c4.33-.84,26-5,28.66-3a.94.94,0,0,1,.4.7c.22,2.61-.75,22.13-.9,25,4.54,2.45,23.38,12.83,23.26,16.12a1.13,1.13,0,0,1-.74,1A7.38,7.38,0,0,1,259.37,257.83Zm-47.52-7.89c13.13,2.41,46.41,8.09,49.65,6.66.08,0,.13-.07.13-.1.07-1.81-11.64-9.21-23-15.32a.52.52,0,0,1-.27-.48c0-.23,1.14-22.51.92-25.2-1-1.16-14.65.66-27.43,3.14Z" fill="#231f20"></path><path d="M137.51,44.43c-1.65-2.83-5.47-3.82-8.65-3s-5.81,3-8.1,5.34a4.19,4.19,0,0,0-1.43,2.45c-.06,1,.86,2,1.77,1.68-4.39-.78-8,3.45-9.93,7.46-1,2-1.77,4.3-.87,6.29s3.34,3,5.58,3.24a16.37,16.37,0,0,0,11.9-3.45A11,11,0,0,0,145.9,60c-.84.53.48,1.6,1.46,1.65,2.39.14,4.86.27,7.09-.61,5.06-2,5.66-14.18,2.28-18.15C153.15,38.66,139.83,38.88,137.51,44.43Z" fill="#fff"></path><path d="M117.66,68.48a16.21,16.21,0,0,1-1.84-.1c-2.95-.33-5.13-1.62-6-3.54-1-2.26-.07-4.78.87-6.72s3.83-7.13,8.38-7.79a2.21,2.21,0,0,1-.26-1.17,4.62,4.62,0,0,1,1.57-2.77c2-2.09,4.82-4.61,8.34-5.49,2.92-.72,6.69,0,8.73,2.53,1.21-1.87,3.77-3.22,7.18-3.75,4.41-.69,10.11.06,12.48,2.84,2.13,2.5,2.87,8.2,1.68,13-.78,3.1-2.25,5.23-4.16,6-2.37.93-5,.78-7.31.65a2.91,2.91,0,0,1-1.51-.59,11.47,11.47,0,0,1-18.07,3.56A16.78,16.78,0,0,1,117.66,68.48Zm2.41-17.18c-3.6,0-6.68,3.64-8.44,7.27-.84,1.74-1.7,4-.86,5.85,1,2.23,4,2.8,5.17,2.93A15.7,15.7,0,0,0,127.46,64a.52.52,0,0,1,.68,0,10.43,10.43,0,0,0,17-3.5,1,1,0,0,1,.5-1,.5.5,0,0,1,.59,0,.5.5,0,0,1,.17.56c0,.14-.09.28-.14.42a1.89,1.89,0,0,0,1.14.56c2.21.13,4.71.27,6.87-.58,1.59-.63,2.85-2.5,3.54-5.27,1.1-4.41.44-9.83-1.47-12.06S149.54,40,144.8,40.7c-3.52.55-6,2-6.81,3.92a.51.51,0,0,1-.45.32.52.52,0,0,1-.48-.25c-1.6-2.75-5.28-3.48-8.08-2.78-3.27.81-5.91,3.21-7.85,5.2a3.78,3.78,0,0,0-1.28,2.12,1.25,1.25,0,0,0,.49,1h0c.27,0,.55,0,.84.1a.51.51,0,0,1,.42.46.52.52,0,0,1-.34.53,1.57,1.57,0,0,1-1.2-.06Z" fill="#d1d3d4"></path><path d="M145.71,60.53a12.84,12.84,0,0,1-1.69-.14c-2.05-.3-4.65-1.13-5.39-3.42a.52.52,0,0,1,.33-.65.52.52,0,0,1,.65.33c.6,1.88,3.12,2.51,4.56,2.72a6.68,6.68,0,0,0,3.23-.15,5.54,5.54,0,0,0,2.14-1.68,11.46,11.46,0,0,0,2-3.53.51.51,0,0,1,1,.34,12.17,12.17,0,0,1-2.19,3.85,6.49,6.49,0,0,1-2.56,2A5.65,5.65,0,0,1,145.71,60.53Z" fill="#d1d3d4"></path><path d="M253.72,43A6.93,6.93,0,0,0,249.19,56a7.68,7.68,0,0,1,2.22,1.1,7.35,7.35,0,0,1,1.12,1.61c2.1,3.36,6.58,4.7,10.46,3.91s7.2-3.37,9.78-6.38a1.69,1.69,0,0,0-.11,2.37A4.4,4.4,0,0,0,275,59.86c2.73.73,5.76,1,8.28-.29a6,6,0,0,0,3.26-6.86c.5,1.71,2.66,1,3.4.23,1-1,.9-3.89.73-5.14-.5-3.86-4.11-7.9-8.33-7.57a8.81,8.81,0,0,1-2.55.14c-1.39-.3-2.27-1.66-3.54-2.31a4.94,4.94,0,0,0-4.74.44A13.14,13.14,0,0,0,268,42c-.58-1.42-2.41-1.76-3.94-1.74-4,.05-6.27.87-9,3.46A6.07,6.07,0,0,0,253.72,43Z" fill="#fff"></path><path d="M260.75,63.39A10.16,10.16,0,0,1,252.09,59c-.09-.13-.17-.27-.25-.41a3.24,3.24,0,0,0-2.23-1.84L249,56.5a7.44,7.44,0,0,1,4.87-14h0a3.7,3.7,0,0,1,1.11.59l0,0c2.67-2.42,5-3.26,9.07-3.31,1.88,0,3.23.44,4,1.34a12,12,0,0,1,3.17-3.06,5.46,5.46,0,0,1,5.25-.46A8,8,0,0,1,278,38.7a3.34,3.34,0,0,0,3.5,1.11l.78-.09c4.57-.37,8.36,3.93,8.9,8,0,.17.53,4.17-.89,5.57a3.47,3.47,0,0,1-2.93.9l-.11,0A6.67,6.67,0,0,1,283.48,60c-2.29,1.14-5.2,1.25-8.64.33A4.85,4.85,0,0,1,272.27,59a2.48,2.48,0,0,1-.46-.9,17.49,17.49,0,0,1-8.72,5.09A11.6,11.6,0,0,1,260.75,63.39Zm-8.6-20.09a6.76,6.76,0,0,0-6.24,4.28,6.7,6.7,0,0,0,3.48,8l.59.23a4.21,4.21,0,0,1,2.75,2.29l.23.38c1.87,3,6,4.5,9.93,3.69A17.26,17.26,0,0,0,272,56.39a1.69,1.69,0,0,1,.49-.54.52.52,0,0,1,.69.76l-.33.37a1.08,1.08,0,0,0-.07.27,1.44,1.44,0,0,0,.3,1.06,4,4,0,0,0,2.05,1c3.19.86,5.86.77,7.91-.25a5.46,5.46,0,0,0,3-6.25h0a.52.52,0,1,1,1-.29h0a.81.81,0,0,0,.6.63,2.49,2.49,0,0,0,1.95-.63c.73-.73.78-3.19.58-4.7-.47-3.62-3.9-7.43-7.78-7.12l-.73.08a4.3,4.3,0,0,1-4.31-1.34,7.19,7.19,0,0,0-1.32-1,4.51,4.51,0,0,0-4.25.42,12.83,12.83,0,0,0-3.33,3.4.52.52,0,0,1-.89-.12c-.52-1.26-2.4-1.43-3.45-1.41-3.95,0-6.06.85-8.67,3.31a.53.53,0,0,1-.62.07l-.41-.27a3,3,0,0,0-.78-.44h0A5.86,5.86,0,0,0,252.15,43.3Z" fill="#d1d3d4"></path><path d="M273.81,57.06a9.08,9.08,0,0,1-1-.07,8.52,8.52,0,0,1-6.93-6.11.51.51,0,0,1,.36-.63.52.52,0,0,1,.63.37,7.3,7.3,0,0,0,13.36,1.8.51.51,0,0,1,.71-.18.52.52,0,0,1,.18.7A8.58,8.58,0,0,1,273.81,57.06Z" fill="#d1d3d4"></path><path d="M252.83,48.53a4,4,0,0,1,5.62-4.32" fill="#fff"></path><path d="M252.83,49a.51.51,0,0,1-.51-.42,4.51,4.51,0,0,1,6.35-4.88.52.52,0,0,1-.44.94,3.47,3.47,0,0,0-4.89,3.76.52.52,0,0,1-.42.6Z" fill="#d1d3d4"></path><path d="M129.06,71.81a.51.51,0,0,0-.5-.5.5.5,0,0,0-.5.5c.17,1.51.35,3,.52,4.53a.51.51,0,0,0,.5.5.51.51,0,0,0,.5-.5C129.41,74.83,129.23,73.32,129.06,71.81Z" fill="#d1d3d4"></path><path d="M139,78.34a.5.5,0,0,0-.87.5,3.51,3.51,0,0,1,.33.6l0,.08s0,0,0,0l0,.12c0,.11.08.22.11.33a4.56,4.56,0,0,1,.14.64v.09s0,.09,0,.13,0,.25,0,.37a.5.5,0,0,0,1,0A5.56,5.56,0,0,0,139,78.34Z" fill="#d1d3d4"></path><path d="M147,74.31c-.13-.75-.25-1.5-.38-2.25a.5.5,0,0,0-.61-.35.52.52,0,0,0-.35.62c.12.75.25,1.5.37,2.25a.51.51,0,0,0,.62.35A.52.52,0,0,0,147,74.31Z" fill="#d1d3d4"></path><path d="M262.61,71.69l-.76-2.63a.5.5,0,0,0-1,.26l.75,2.63a.5.5,0,0,0,1-.26Z" fill="#d1d3d4"></path><path d="M273,74.7a.51.51,0,0,0-.5.5v3a.5.5,0,0,0,.5.5.51.51,0,0,0,.5-.5v-3A.51.51,0,0,0,273,74.7Z" fill="#d1d3d4"></path><path d="M282.93,75.2a.52.52,0,0,0-.5-.5c-.25,0-.54.23-.5.5l.57,4.52a.5.5,0,1,0,1,0Z" fill="#d1d3d4"></path><path d="M278.25,97.23a.51.51,0,0,0-.5.5V99.6a.5.5,0,1,0,1,0V97.73A.5.5,0,0,0,278.25,97.23Z" fill="#d1d3d4"></path><path d="M288.52,107.72c-.38-1.25-.75-2.5-1.13-3.75a.52.52,0,0,0-.62-.35.5.5,0,0,0-.34.61c.37,1.26.75,2.51,1.13,3.76a.5.5,0,1,0,1-.27Z" fill="#d1d3d4"></path><path d="M121.76,83.47a.51.51,0,0,0-.5-.5.5.5,0,0,0-.5.5c.12,1.12.24,2.25.37,3.38a.5.5,0,0,0,.5.5.51.51,0,0,0,.5-.5C122,85.72,121.88,84.59,121.76,83.47Z" fill="#d1d3d4"></path><path d="M126.66,105.11a11.55,11.55,0,0,1-.3-4.38.5.5,0,0,0-1,0,12.36,12.36,0,0,0,.33,4.65A.5.5,0,0,0,126.66,105.11Z" fill="#d1d3d4"></path><path d="M131.84,87.84a.51.51,0,0,0-.5.5v2.25a.5.5,0,0,0,1,0V88.34A.51.51,0,0,0,131.84,87.84Z" fill="#d1d3d4"></path></g></svg>